# AST/ASF file generated using VICON BodyLanguage
# -----------------------------------------------
:version 1.10
:name VICON
:units
  mass 1.0
  length 0.45
  angle deg
:documentation
   .ast/.asf automatically generated from VICON data using
   VICON BodyBuilder and BodyLanguage model FoxedUp or BRILLIANT.MOD
:root
   order TX TY TZ RX RY RZ
   axis XYZ
   position 0 0 0  
   orientation 0 -0 0 
:bonedata
  begin
     id 1 
     name lhipjoint
     direction 0.515797 -0.759363 0.396637 
     length 2.47888 
     axis 0 -0 0  XYZ
  end
  begin
     id 2 
     name lfemur
     direction 0.34202 -0.939693 0  
     length 6.81885  
     axis 0 -0 20  XYZ
    dof rx ry rz
    limits (-160.0 20.0)
           (-70.0 70.0)
           (-60.0 70.0)
  end
  begin
     id 3 
     name ltibia
     direction 0.342037 -0.939687 0   
     length 7.89258   
     axis 0 -0 20   XYZ
    dof rx
    limits (-10.0 170.0)
  end
  begin
     id 4 
     name lfoot
     direction 0.173497 -0.476678 0.861787   
     length 2.51543   
     axis -90 -1.13533e-015 20   XYZ
    dof rx rz
    limits (-45.0 90.0)
           (-70.0 20.0)
  end
  begin
     id 5 
     name ltoes
     direction 1.53564e-011 -4.21897e-011 1   
     length 1.21388   
     axis -90 -1.13533e-015 20   XYZ
    dof rx
    limits (-90.0 20.0)
  end
  begin
     id 6 
     name rhipjoint
     direction -0.489454 -0.772941 0.403729   
     length 2.43534  
     axis 0 -0 0  XYZ 
  end
  begin
     id 7 
     name rfemur
     direction -0.34202 -0.939693 0   
     length 7.10357   
     axis 0 -0 -20   XYZ
    dof rx ry rz
    limits (-160.0 20.0)
           (-70.0 70.0)
           (-70.0 60.0)
  end
  begin
     id 8 
     name rtibia
     direction -0.34202 -0.939693 0   
     length 9.16127   
     axis 0 -0 -20   XYZ
    dof rx
    limits (-10.0 170.0)
 end
 begin
     id 9 
     name rfoot
     direction -0.270974 -0.748671 0.605033   
     length 1.74894  
     axis -90 1.13533e-015 -20   XYZ
    dof rx rz
    limits (-45.0 90.0)
           (-20.0 70.0)
  end
  begin
     id 10 
     name rtoes
     direction -1.53557e-011 -4.21759e-011 1   
     length 0.787585   
     axis -90 1.13533e-015 -20   XYZ
    dof rx
    limits (-90.0 20.0)
  end
  begin
     id 11 
     name lowerback
     direction -0.0140249 0.999561 0.0260968   
     length 2.16963   
     axis 0 -0 0   XYZ
    dof rx ry rz
    limits (-20.0 45.0)
           (-30.0 30.0)
           (-30.0 30.0)
  end
  begin
     id 12 
     name upperback
     direction 0.00860018 0.999959 -0.002711   
     length 2.1726   
     axis 0 -0 0   XYZ
    dof rx ry rz
    limits (-20.0 45.0)
           (-30.0 30.0)
           (-30.0 30.0)
  end
  begin
     id 13 
     name thorax
     direction 0.015211 0.999782 -0.0143191   
     length 2.17061   
     axis 0 -0 0   XYZ
    dof rx ry rz
    limits (-20.0 45.0)
           (-30.0 30.0)
           (-30.0 30.0)
  end
  begin
     id 14 
     name lowerneck
     direction -0.0140143 0.999447 0.030145   
     length 2.26749   
     axis 0 -0 0   XYZ
    dof rx ry rz
    limits (-20.0 45.0)
           (-30.0 30.0)
           (-30.0 30.0)
  end
  begin
     id 15 
     name upperneck
     direction 0.118062 0.961438 -0.248392   
     length 2.22728   
     axis 0 -0 0   XYZ
    dof rx ry rz
    limits (-20.0 45.0)
           (-30.0 30.0)
           (-30.0 30.0)
  end
  begin
     id 16
     name head
     direction 0.0431885 0.9954 -0.085514  
     length 2.28786  
     axis 0 -0 0   XYZ
    dof rx ry rz
    limits (-20.0 45.0)
           (-30.0 30.0)
           (-30.0 30.0)
  end
  begin
     id 17 
     name lclavicle
     direction 0.912126 0.409548 0.0172323  
     length 4.31571  
     axis 0 -0 0   XYZ
    dof ry rz
    limits (-20.0 10.0)
           (0.0 20.0)
  end
  begin
     id 18 
     name lhumerus
     direction 1 -4.48977e-011 1.93091e-027   
     length 5.13658   
     axis 180 -30 -90   XYZ
    dof rx ry rz
    limits (-60.0 90.0)
           (-90.0 90.0)
           (-90.0 90.0)
  end
  begin
     id 19
     name lradius
     direction 1 -4.48916e-011 6.84018e-027   
     length 3.22473   
     axis 180 -30 -90   XYZ
    dof rx
    limits (-10.0 170.0)
  end
  begin
     id 20
     name lwrist
     direction 1 -4.48987e-011 7.01981e-027   
     length 1.61236   
     axis -4.37994e-015 90 90   XYZ
    dof ry
    limits (-180.0 0.0)
 end
  begin
     id 21 
     name lhand
     direction 1 -4.49037e-011 1.40335e-026   
     length 0.936406   
     axis -8.96029e-015 90 90   XYZ
    dof rx rz
    limits (-90.0 90.0)
           (-45.0 45.0)
  end
  begin
     id 22 
     name lfingers
     direction 1 -4.48886e-011 2.8104e-026   
     length 0.754955   
     axis -1.79203e-014 90 90   XYZ
    dof rx
    limits (0.0 90.0)
  end
  begin
     id 23
     name lthumb
     direction 0.707107 -6.34937e-011 0.707107   
     length 1.08397   
     axis -90 45 -4.48555e-014   XYZ
    dof rx rz
    limits (-45.0 45.0)
           (-45.0 45.0)
  end
  begin
     id 24 
     name rclavicle
     direction -0.947962 0.317997 0.0156638   
     length 4.86918  
     axis 0 -0 0   XYZ 
    dof ry rz
    limits (-10.0 20.0)
           (-20.0 0.0)
  end
  begin
     id 25 
     name rhumerus
     direction -1 -4.48951e-011 2.80534e-018  
     length 5.60911   
     axis 180 30 90   XYZ
    dof rx ry rz
    limits (-90.0 60.0)
           (-90.0 90.0)
           (-90.0 90.0)
  end
  begin
     id 26 
     name rradius
     direction -1 -4.4898e-011 2.11315e-027   
     length 3.38704   
     axis 180 30 90   XYZ
    dof rx
    limits (-10.0 170.0)
  end
  begin
     id 27 
     name rwrist
     direction -1 -4.48933e-011 7.02314e-027   
     length 1.69352   
     axis -4.37994e-015 -90 -90   XYZ
    dof ry
    limits (-180.0 0.0)
  end
  begin
     id 28
     name rhand
     direction -1 -4.48937e-011 1.40458e-026   
     length 0.755878   
     axis -8.96029e-015 -90 -90   XYZ
    dof rx rz
    limits (-90.0 90.0)
           (-45.0 45.0)
  end
  begin
     id 29
     name rfingers
     direction -1 -4.4901e-011 2.80737e-026   
     length 0.609409   
     axis -1.79203e-014 -90 -90   XYZ
    dof rx
    limits (0.0 90.0)
  end
  begin
     id 30
     name rthumb
     direction -0.707107 -6.34968e-011 0.707107   
     length 0.874992   
     axis -90 -45 4.48555e-014   XYZ
    dof rx rz
    limits (-45.0 45.0)
           (-45.0 45.0)
  end
:hierarchy
  begin
    root lhipjoint rhipjoint lowerback
    lhipjoint lfemur
    lfemur ltibia
    ltibia lfoot
    lfoot ltoes
    rhipjoint rfemur
    rfemur rtibia
    rtibia rfoot
    rfoot rtoes
    lowerback upperback
    upperback thorax
    thorax lowerneck lclavicle rclavicle
    lowerneck upperneck
    upperneck head
    lclavicle lhumerus
    lhumerus lradius
    lradius lwrist
    lwrist lhand lthumb
    lhand lfingers
    rclavicle rhumerus
    rhumerus rradius
    rradius rwrist
    rwrist rhand rthumb
    rhand rfingers
  end

#!OML:ASF C:\ViconDB\ViconDB\414\Spring2016\041811\Spring2016.ASF
:FULLY-SPECIFIED
:DEGREES
77
root 11.5897 17.2763 25.9436 -169.245 -12.7664 180.61
lowerback 3.63995 0.147766 0.302831
upperback 1.28547 0.146366 2.30557
thorax -0.726908 0.0344748 2.18983
lowerneck -11.6324 -0.917747 -11.0306
upperneck 23.1512 -3.28182 13.08
head 9.53592 -1.55207 6.05534
rclavicle 4.77083e-015 0
rhumerus -57.0193 -5.0547 -93.0147
rradius 82.2454
rwrist 8.7488
rhand -38.095 -15.9717
rfingers 7.12502
rthumb -11.1309 -45.6565
lclavicle 4.77083e-015 0
lhumerus -41.7991 -24.1776 98.3791
lradius 94.4788
lwrist -9.66974
lhand -31.1945 8.37915
lfingers 7.12502
lthumb -4.47092 38.312
rfemur -12.7694 -11.0119 24.3573
rtibia 34.7899
rfoot -173.481 19.218
rtoes -10.6287
lfemur -15.511 -7.61973 -10.2826
ltibia 59.1658
lfoot 6.35426 -4.40415
ltoes -10.7258
78
root 11.5869 17.2684 25.8151 -169.485 -12.6261 180.888
lowerback 3.92337 0.31161 0.760623
upperback 1.57511 0.356223 2.4851
thorax -0.593636 0.127677 2.10816
lowerneck -11.5028 -1.11704 -11.3757
upperneck 22.9921 -3.48861 13.1397
head 9.49184 -1.66918 6.10911
rclavicle -1.41137e-014 -1.98785e-014
rhumerus -56.0336 -4.30914 -93.0638
rradius 82.5202
rwrist 8.02874
rhand -38.9125 -16.6526
rfingers 7.12502
rthumb -11.9193 -46.2933
lclavicle -1.41137e-014 -1.98785e-014
lhumerus -42.3258 -23.7321 98.6439
lradius 93.2094
lwrist -9.71218
lhand -31.304 8.53803
lfingers 7.12502
lthumb -4.57671 38.4686
rfemur -11.5716 -11.3635 24.5299
rtibia 33.896
rfoot -173.237 19.6206
rtoes -10.3005
lfemur -17.3547 -7.12422 -10.0285
ltibia 62.2363
lfoot 8.40075 -3.68715
ltoes -6.87957
79
root 11.5885 17.2558 25.6893 -169.682 -12.2329 181.216
lowerback 4.29123 0.586617 1.19995
upperback 1.80356 0.720747 2.58164
thorax -0.57118 0.300751 1.94299
lowerneck -11.3406 -1.37905 -11.5784
upperneck 22.9347 -3.84356 13.1645
head 9.49683 -1.85471 6.11086
rclavicle -6.55989e-015 -1.98785e-014
rhumerus -54.9973 -3.87619 -93.0284
rradius 82.8104
rwrist 8.23892
rhand -38.9432 -15.933
rfingers 7.12502
rthumb -11.9489 -45.572
lclavicle -6.55989e-015 -1.98785e-014
lhumerus -43.1228 -23.4022 98.8551
lradius 91.7681
lwrist -10.0301
lhand -31.5208 8.92843
lfingers 7.12502
lthumb -4.78606 38.8544
rfemur -10.4412 -11.0502 24.8051
rtibia 33.0118
rfoot -173.141 19.7038
rtoes -10.3316
lfemur -19.2918 -6.31358 -9.74721
ltibia 65.3295
lfoot 8.98542 -3.517
ltoes -4.84986
80
root 11.5901 17.2443 25.5586 -169.816 -11.9315 181.542
lowerback 4.48301 0.801231 1.58236
upperback 2.10673 0.99091 2.7299
thorax -0.368909 0.424603 1.86824
lowerneck -11.2988 -1.60449 -11.7928
upperneck 22.8327 -4.11943 13.2181
head 9.49984 -1.99234 6.13377
rclavicle 1.39149e-015 -2.70347e-014
rhumerus -53.6793 -3.18678 -93.0179
rradius 83.2488
rwrist 8.32189
rhand -39.262 -16.2992
rfingers 7.12502
rthumb -12.2562 -45.9201
lclavicle 1.39149e-015 -2.70347e-014
lhumerus -43.8191 -22.9392 98.9377
lradius 90.0833
lwrist -10.4529
lhand -31.8248 9.22228
lfingers 7.12502
lthumb -5.07956 39.1414
rfemur -9.35508 -11.2047 25.0481
rtibia 32.0956
rfoot -172.72 20.0402
rtoes -10.3179
lfemur -21.4167 -5.36596 -9.45673
ltibia 68.3659
lfoot 7.80288 -4.03969
ltoes -5.03167
81
root 11.5904 17.2348 25.4225 -170.006 -11.4907 181.39
lowerback 4.87446 1.05935 1.43773
upperback 2.38637 1.31171 2.78635
thorax -0.311103 0.574377 1.98883
lowerneck -11.0594 -1.81105 -12.1778
upperneck 22.7032 -4.37748 13.3429
head 9.45749 -2.13894 6.21335
rclavicle 2.20651e-014 -1.59028e-015
rhumerus -52.3883 -2.38338 -92.8388
rradius 83.7463
rwrist 8.59686
rhand -39.2469 -15.947
rfingers 7.12502
rthumb -12.2417 -45.5687
lclavicle 2.20651e-014 -1.59028e-015
lhumerus -44.8644 -22.4185 99.1886
lradius 88.2036
lwrist -11.1258
lhand -32.1804 9.75321
lfingers 7.12502
lthumb -5.42296 39.6638
rfemur -8.03959 -10.957 24.7699
rtibia 31.1537
rfoot -172.497 20.1164
rtoes -10.1264
lfemur -23.2938 -4.37806 -9.73561
ltibia 71.1752
lfoot 5.66805 -4.78315
ltoes -5.26636
82
root 11.5854 17.2297 25.2831 -169.911 -11.0072 181.437
lowerback 4.95454 1.3226 1.44865
upperback 2.60336 1.63802 2.91389
thorax -0.143596 0.727642 2.09868
lowerneck -10.8417 -2.00721 -12.4511
upperneck 22.48 -4.58773 13.347
head 9.37694 -2.25837 6.23094
rclavicle -1.98785e-014 -7.95139e-015
rhumerus -50.9651 -1.40814 -92.6837
rradius 84.4858
rwrist 8.43752
rhand -39.9374 -15.8747
rfingers 7.12502
rthumb -12.9075 -45.4555
lclavicle -1.98785e-014 -7.95139e-015
lhumerus -45.9643 -21.7397 99.334
lradius 86.1483
lwrist -11.7404
lhand -32.0082 9.89392
lfingers 7.12502
lthumb -5.25662 39.8087
rfemur -7.16152 -10.6315 24.7294
rtibia 30.3195
rfoot -172.284 20.1921
rtoes -9.89841
lfemur -25.6264 -3.23502 -9.88039
ltibia 73.8196
lfoot 3.69399 -5.42245
ltoes -5.16414
83
root 11.5832 17.2341 25.1317 -170.045 -10.631 181.955
lowerback 5.32591 1.52474 1.96809
upperback 2.7602 1.90514 3.12256
thorax -0.184306 0.849528 2.00268
lowerneck -10.6138 -2.13479 -12.7082
upperneck 22.2927 -4.71803 13.3634
head 9.29495 -2.34082 6.26087
rclavicle 5.32743e-014 1.51076e-014
rhumerus -49.6189 -0.304271 -92.6303
rradius 85.4183
rwrist 8.17018
rhand -40.4018 -15.8877
rfingers 7.12502
rthumb -13.3551 -45.4397
lclavicle 5.32743e-014 1.51076e-014
lhumerus -47.3347 -21.0973 99.499
lradius 83.9148
lwrist -12.0709
lhand -32.4446 10.4641
lfingers 7.12502
lthumb -5.678 40.368
rfemur -6.11026 -10.3108 25.2048
rtibia 29.4611
rfoot -172.08 20.2059
rtoes -9.77839
lfemur -27.8351 -2.14855 -9.48207
ltibia 76.1715
lfoot 1.78837 -6.04519
ltoes -4.6449
84
root 11.5732 17.2193 25.0006 -169.888 -10.3655 181.669
lowerback 5.71458 1.65539 1.90323
upperback 2.83442 2.08445 3.00807
thorax -0.326074 0.937433 1.90216
lowerneck -10.3562 -2.23429 -12.6007
upperneck 22.0722 -4.8357 13.1882
head 9.18203 -2.40514 6.15564
rclavicle 1.63003e-014 -4.53229e-014
rhumerus -48.0938 0.575533 -92.5781
rradius 86.4854
rwrist 8.68378
rhand -40.8866 -15.8195
rfingers 7.12502
rthumb -13.8223 -45.3403
lclavicle 1.63003e-014 -4.53229e-014
lhumerus -48.7673 -20.5819 99.5364
lradius 81.4511
lwrist -12.2205
lhand -32.7648 10.5492
lfingers 7.12502
lthumb -5.98711 40.4446
rfemur -5.3243 -9.90456 24.895
rtibia 28.8369
rfoot -172.136 20.0744
rtoes -9.71879
lfemur -30.3723 -1.42095 -10.1282
ltibia 78.3206
lfoot -0.020675 -6.20784
ltoes -5.34737
85
root 11.5632 17.2111 24.8542 -169.937 -10.0367 181.696
lowerback 6.17629 1.81356 1.9812
upperback 2.9841 2.28857 3.09129
thorax -0.432081 1.02899 1.92156
lowerneck -10.1484 -2.34101 -12.6439
upperneck 21.7723 -4.87387 12.9174
head 9.04223 -2.44365 6.05039
rclavicle -4.96962e-014 -2.94201e-014
rhumerus -46.6152 1.79596 -92.4166
rradius 87.8595
rwrist 9.30283
rhand -41.1825 -16.2809
rfingers 7.12502
rthumb -14.1075 -45.782
lclavicle -4.96962e-014 -2.94201e-014
lhumerus -50.302 -20.0556 99.7181
lradius 79.2232
lwrist -10.9514
lhand -33.1 11.0701
lfingers 7.12502
lthumb -6.31074 40.9561
rfemur -4.34738 -10.0356 24.7419
rtibia 28.1717
rfoot -171.813 20.3894
rtoes -9.05292
lfemur -32.6236 -0.652703 -10.4869
ltibia 80.1008
lfoot -1.91066 -6.21408
ltoes -6.73518
86
root 11.5605 17.2145 24.7005 -169.281 -8.55364 181.504
lowerback 6.10289 2.34236 1.60592
upperback 2.93761 2.9892 2.86651
thorax -0.461252 1.38564 1.85596
lowerneck -9.91426 -2.39616 -12.4431
upperneck 21.449 -4.93339 12.7856
head 8.88917 -2.46482 5.95012
rclavicle -4.45278e-014 -1.59028e-015
rhumerus -45.0516 2.69084 -92.4077
rradius 89.4345
rwrist 9.46078
rhand -41.3817 -15.0577
rfingers 7.12502
rthumb -14.2994 -44.5453
lclavicle -4.45278e-014 -1.59028e-015
lhumerus -52.1323 -19.7237 99.6565
lradius 77.1607
lwrist -10.2787
lhand -33.2845 11.9651
lfingers 7.12502
lthumb -6.4889 41.8457
rfemur -4.24061 -9.13675 24.2591
rtibia 27.7171
rfoot -171.127 20.7227
rtoes -8.76359
lfemur -35.2149 1.17616 -11.3279
ltibia 81.5163
lfoot -3.83213 -6.16453
ltoes -7.27412
87
root 11.5365 17.2167 24.5442 -169.297 -8.31877 181.122
lowerback 6.68414 2.45028 1.44482
upperback 3.04177 3.12755 2.79084
thorax -0.68384 1.44859 1.83777
lowerneck -9.69818 -2.44385 -12.4746
upperneck 21.0781 -4.92018 12.6671
head 8.71999 -2.46408 5.90387
rclavicle 2.38542e-014 -3.4191e-014
rhumerus -43.664 3.89956 -92.1945
rradius 91.4569
rwrist 9.75196
rhand -42.583 -15.0412
rfingers 7.12502
rthumb -15.4568 -44.4432
lclavicle 2.38542e-014 -3.4191e-014
lhumerus -54.0993 -19.5572 99.926
lradius 75.3039
lwrist -9.04053
lhand -33.2876 12.8666
lfingers 7.12502
lthumb -6.49186 42.7471
rfemur -3.22373 -9.26345 23.6459
rtibia 27.1198
rfoot -170.689 20.9889
rtoes -8.66156
lfemur -37.3944 1.59108 -12.3142
ltibia 82.621
lfoot -5.56239 -5.92483
ltoes -7.44334
88
root 11.521 17.2162 24.3748 -169.239 -7.54761 181.478
lowerback 6.96673 2.77991 1.77263
upperback 3.17101 3.56798 2.86892
thorax -0.700565 1.65989 1.69425
lowerneck -9.52241 -2.51093 -12.6493
upperneck 20.6043 -4.93603 12.7688
head 8.53719 -2.46379 5.95649
rclavicle -7.95139e-016 3.26007e-014
rhumerus -42.2618 5.12315 -91.8638
rradius 93.8438
rwrist 10.1934
rhand -42.8158 -15.4091
rfingers 7.12502
rthumb -15.681 -44.7937
lclavicle -7.95139e-016 3.26007e-014
lhumerus -56.1794 -19.4281 100.159
lradius 73.7601
lwrist -7.66209
lhand -33.319 13.4536
lfingers 7.12502
lthumb -6.5222 43.3331
rfemur -2.41656 -8.432 23.8142
rtibia 26.5857
rfoot -170.616 20.9571
rtoes -8.88486
lfemur -39.5585 2.69604 -12.5021
ltibia 83.4795
lfoot -7.20624 -6.00779
ltoes -6.60543
89
root 11.5101 17.2091 24.2168 -169.072 -6.95279 181.538
lowerback 7.36065 3.01742 1.89883
upperback 3.26097 3.89223 2.70801
thorax -0.811206 1.81949 1.4171
lowerneck -9.68212 -2.54479 -12.0845
upperneck 20.3015 -4.9132 12.413
head 8.44283 -2.41783 5.72404
rclavicle -3.22031e-014 2.78299e-014
rhumerus -40.8098 6.0569 -91.8029
rradius 96.7145
rwrist 10.9042
rhand -43.2969 -14.8842
rfingers 7.12502
rthumb -16.1443 -44.2318
lclavicle -3.22031e-014 2.78299e-014
lhumerus -58.5321 -19.4749 100.139
lradius 72.7917
lwrist -6.25837
lhand -33.5003 14.2687
lfingers 7.12502
lthumb -6.69719 44.1428
rfemur -1.68552 -8.38957 23.6547
rtibia 25.979
rfoot -169.794 21.2137
rtoes -8.54672
lfemur -41.9111 3.43754 -12.9786
ltibia 84.0862
lfoot -8.83523 -5.91006
ltoes -6.85198
90
root 11.4927 17.2029 24.0514 -168.963 -6.42755 181.875
lowerback 7.71697 3.24024 2.21693
upperback 3.38718 4.19405 2.76981
thorax -0.861587 1.96075 1.26511
lowerneck -9.87887 -2.57097 -11.9823
upperneck 19.9748 -4.82327 12.2461
head 8.35391 -2.35543 5.64822
rclavicle -1.19271e-014 -1.51076e-014
rhumerus -39.2786 7.22467 -91.3627
rradius 99.7163
rwrist 11.3759
rhand -43.4228 -14.9247
rfingers 7.12502
rthumb -16.2655 -44.2624
lclavicle -1.19271e-014 -1.51076e-014
lhumerus -60.985 -19.4306 100.429
lradius 71.8984
lwrist -5.76839
lhand -33.612 14.8024
lfingers 7.12502
lthumb -6.805 44.6731
rfemur -0.878716 -8.11827 23.7961
rtibia 25.3626
rfoot -169.311 21.2789
rtoes -8.23208
lfemur -44.1456 4.24924 -13.1657
ltibia 84.3816
lfoot -10.2224 -6.11995
ltoes -7.59973
91
root 11.47 17.2085 23.8784 -168.695 -5.76473 181.641
lowerback 8.08331 3.4565 2.1285
upperback 3.39792 4.48991 2.51266
thorax -1.04109 2.11017 1.00421
lowerneck -9.94781 -2.5478 -11.7164
upperneck 19.5973 -4.74591 12.2036
head 8.22435 -2.28539 5.58539
rclavicle 4.73108e-014 1.27222e-014
rhumerus -37.8633 8.31117 -91.0503
rradius 102.939
rwrist 11.1969
rhand -43.5145 -14.257
rfingers 7.12502
rthumb -16.3538 -43.5875
lclavicle 4.73108e-014 1.27222e-014
lhumerus -63.9553 -19.6481 100.642
lradius 71.5856
lwrist -5.19045
lhand -33.786 15.4984
lfingers 7.12502
lthumb -6.97298 45.3636
rfemur -0.266959 -7.73034 23.2763
rtibia 24.8761
rfoot -168.776 21.2713
rtoes -8.58793
lfemur -46.2576 4.74476 -14.0977
ltibia 84.2732
lfoot -11.6669 -5.7334
ltoes -8.23312
